<?xml version="1.0" standalone="no"?>
<!DOCTYPE svg PUBLIC "-//W3C//DTD SVG 20010904//EN"
 "http://www.w3.org/TR/2001/REC-SVG-20010904/DTD/svg10.dtd">
<svg version="1.0" xmlns="http://www.w3.org/2000/svg"
 width="700.000000pt" height="700.000000pt" viewBox="0 0 700.000000 700.000000"
 preserveAspectRatio="xMidYMid meet">
<metadata>
Created by potrace 1.14, written by Peter Selinger 2001-2017
</metadata>
<g transform="translate(0.000000,700.000000) scale(0.100000,-0.100000)"
fill="#000000" stroke="none">
<path d="M3359 6997 c-2 -3 -31 -7 -64 -11 -277 -30 -589 -158 -820 -334 -59
-46 -221 -203 -283 -274 -110 -128 -238 -362 -298 -545 -58 -178 -78 -311 -78
-523 1 -216 12 -264 87 -377 49 -72 163 -201 170 -193 3 3 -6 41 -19 85 -58
193 -81 347 -78 517 2 110 4 135 24 248 40 223 172 505 315 675 65 76 153 165
220 220 33 28 62 52 65 55 19 21 170 110 247 147 99 46 253 100 313 109 19 3
53 10 75 16 22 5 128 11 235 13 203 4 309 -8 455 -50 424 -123 776 -425 964
-825 61 -132 87 -215 127 -412 4 -18 8 -127 8 -241 l2 -208 62 -51 c37 -30 67
-47 72 -42 15 16 32 180 32 315 0 91 -9 228 -17 259 -2 8 -7 31 -10 50 -34
203 -133 445 -262 638 -65 99 -261 304 -372 392 -206 162 -465 274 -756 326
-81 14 -405 30 -416 21z"/>
<path d="M3357 6139 c-23 -14 -47 -69 -47 -108 0 -17 9 -52 19 -79 22 -54 22
-54 -21 -196 -36 -118 -36 -119 -454 -541 l-132 -132 -162 -83 c-185 -95 -220
-120 -220 -159 0 -81 50 -166 111 -190 26 -9 243 -7 349 4 132 13 158 17 210
25 30 5 71 12 90 15 19 3 42 8 50 10 8 2 26 6 40 9 14 2 45 9 69 14 24 6 39 7
35 2 -31 -30 -540 -287 -644 -325 -52 -19 -95 -27 -140 -27 -142 -1 -352 102
-542 265 -32 27 -58 45 -58 40 0 -18 114 -240 153 -298 79 -116 234 -292 319
-360 147 -119 220 -167 356 -234 154 -77 350 -137 507 -156 22 -3 56 -7 75
-10 45 -6 287 -7 320 -1 14 2 48 7 75 10 48 6 71 9 125 21 14 3 34 7 46 9 44
9 209 68 280 100 114 53 251 133 332 194 86 64 264 240 328 323 102 133 251
425 269 528 6 36 -17 61 -130 146 -83 62 -143 97 -205 120 -25 9 -54 21 -65
25 -20 9 -149 40 -172 42 -6 1 10 22 38 48 27 25 49 54 49 64 0 35 -55 110
-153 210 -127 129 -150 160 -154 203 -3 40 -92 167 -144 205 l-31 23 7 78 c7
87 -5 141 -35 157 -56 30 -114 -13 -104 -77 3 -19 12 -53 20 -75 21 -60 18
-73 -28 -113 -129 -112 -283 -114 -369 -4 -69 88 -122 129 -168 129 -31 0 -32
1 -25 38 4 20 8 45 10 55 3 18 -36 67 -53 67 -4 0 -16 -5 -26 -11z m735 -111
c1 -65 -11 -79 -33 -37 -21 40 -24 80 -7 97 20 20 39 -9 40 -60z m-721 -19
c-9 -33 -9 -33 -10 17 -1 28 2 54 7 58 11 12 14 -39 3 -75z m173 -139 c33 -34
87 -83 120 -109 67 -52 109 -111 78 -111 -9 0 -45 9 -79 19 -101 31 -211 43
-270 30 -18 -4 -33 -5 -33 -2 0 2 9 25 21 50 21 47 27 74 28 131 1 41 34 76
59 63 9 -5 44 -37 76 -71z m546 -13 c0 -6 -17 -27 -37 -46 -21 -19 -79 -72
-130 -118 l-92 -84 -25 50 c-15 28 -26 53 -26 55 0 3 30 14 68 25 68 21 132
56 187 105 32 28 55 34 55 13z m115 -104 l50 -66 -60 -55 c-33 -30 -74 -65
-92 -79 l-31 -24 -91 28 c-50 15 -91 31 -91 34 0 6 88 88 205 193 22 19 45 36
50 36 6 0 32 -30 60 -67z m-550 -133 c120 -40 124 -43 100 -71 -11 -12 -39
-35 -63 -51 -41 -28 -45 -29 -93 -19 -73 16 -122 14 -190 -9 -114 -39 -182
-97 -160 -139 6 -11 37 -32 68 -47 32 -15 60 -29 62 -30 2 -2 -13 -22 -33 -46
-51 -59 -56 -85 -22 -115 15 -13 34 -23 42 -23 23 0 16 -14 -19 -34 -103 -60
-353 -176 -379 -176 -15 0 -8 15 25 51 160 181 164 216 36 296 -56 34 -59 38
-40 47 11 5 26 24 33 43 13 36 53 70 63 53 10 -16 42 -12 49 6 3 9 6 31 6 50
0 34 0 34 43 32 41 -3 42 -3 45 32 5 58 8 61 39 45 36 -19 52 -5 47 42 -4 48
0 53 41 41 43 -14 64 1 57 38 l-5 27 79 -7 c44 -4 119 -20 169 -36z m659 -77
c38 -45 53 -70 46 -77 -20 -20 -122 -12 -179 14 l-54 24 58 53 c31 29 61 53
65 53 5 0 34 -30 64 -67z m-263 -60 c76 -32 139 -61 139 -65 0 -3 -16 -16 -36
-29 -50 -31 -67 -30 -205 10 -76 22 -146 20 -186 -6 -16 -9 -56 -41 -90 -71
-50 -43 -63 -60 -63 -82 0 -17 -9 -38 -22 -50 -42 -39 -117 -81 -145 -82 -36
-1 -93 12 -93 20 2 28 400 370 462 397 56 24 95 17 239 -42z m-458 -52 c5 -5
-17 -31 -52 -60 -76 -62 -99 -76 -129 -72 -38 4 -112 41 -112 55 0 15 87 64
143 81 44 13 136 10 150 -4z m868 -27 c27 -25 24 -34 -28 -88 l-48 -48 -85 6
c-76 6 -122 11 -170 21 -8 2 -17 4 -20 4 -8 2 51 40 104 67 54 29 181 64 210
58 10 -2 27 -11 37 -20z m-519 -53 c104 -30 110 -37 37 -44 -89 -9 -130 -18
-249 -51 -30 -9 -59 -16 -64 -16 -15 0 26 41 88 87 67 50 89 52 188 24z m618
-73 c8 -13 1 -24 -32 -52 -59 -51 -113 -74 -191 -81 -211 -18 -408 -84 -721
-243 -72 -36 -133 -65 -136 -65 -4 1 -29 4 -58 8 -29 3 -75 10 -104 15 -80 16
-149 12 -184 -9 -16 -10 -45 -42 -63 -70 -18 -28 -40 -51 -50 -52 -9 0 -25 -2
-36 -4 -11 -2 -51 -7 -90 -10 -248 -23 -435 -30 -435 -17 0 13 81 37 155 47
130 16 326 59 418 92 115 41 233 100 416 211 141 85 339 188 361 189 8 0 40 5
71 11 55 11 208 9 280 -3 124 -20 233 -21 262 -2 13 8 39 33 58 55 l34 41 18
-22 c10 -12 22 -30 27 -39z m-1604 -83 c18 -13 17 -14 -18 -15 -37 0 -51 13
-25 23 19 8 22 8 43 -8z m110 -76 c12 -10 12 -16 -5 -45 -11 -18 -30 -45 -44
-61 -97 -111 -125 -141 -155 -165 -19 -16 -43 -28 -53 -28 -17 0 -16 5 11 53
38 68 40 114 5 123 -23 6 -68 2 -142 -12 -18 -3 -33 -4 -33 -1 0 3 33 27 73
53 39 27 74 52 77 55 28 32 235 54 266 28z m1439 -93 c83 -9 165 -35 260 -81
90 -45 165 -100 165 -121 0 -33 -27 -33 -111 -2 -180 66 -239 80 -354 83 -97
3 -139 0 -235 -18 -128 -24 -321 -97 -520 -196 -145 -72 -223 -114 -515 -276
-299 -166 -459 -243 -540 -260 -141 -29 -149 -27 -235 60 -49 49 -52 63 -15
56 39 -8 129 -6 194 4 129 21 286 93 656 300 22 12 99 55 170 95 276 155 551
282 705 325 132 36 237 45 375 31z m-1705 -82 c0 -15 -63 -113 -82 -126 -13
-9 -50 -19 -83 -22 -54 -5 -163 -32 -206 -50 -19 -9 -39 31 -39 79 0 50 27 63
187 91 76 13 149 28 163 32 22 8 60 5 60 -4z m521 -132 l44 -8 -70 -18 c-96
-25 -105 -26 -149 -33 l-39 -6 18 31 c30 51 65 57 196 34z m1281 -37 c78 -16
198 -60 243 -89 24 -16 25 -18 10 -46 -8 -16 -19 -31 -24 -35 -6 -3 -43 4 -83
15 -77 22 -90 25 -153 35 -47 7 -199 7 -235 1 -14 -3 -41 -7 -60 -10 -141 -21
-364 -106 -615 -234 -154 -79 -509 -275 -532 -294 -7 -6 -13 -7 -13 -3 0 5 -8
1 -17 -8 -31 -27 -259 -138 -297 -144 -39 -6 -104 14 -145 46 l-23 18 121 47
c67 26 235 110 374 185 736 402 889 473 1121 520 103 20 211 19 328 -4z m52
-244 c49 -12 106 -37 106 -48 0 -3 -9 -21 -21 -39 l-20 -33 -152 1 c-274 3
-429 -43 -832 -244 -88 -44 -195 -100 -238 -125 -42 -24 -96 -54 -120 -67 -23
-13 -89 -49 -147 -81 -58 -32 -114 -58 -125 -58 -28 0 -135 32 -135 41 0 4 8
12 18 18 18 11 412 231 535 298 37 20 83 46 103 56 101 57 363 184 441 214 86
33 229 72 288 79 58 6 251 -2 299 -12z m-44 -239 c0 -39 -94 -99 -165 -106
-180 -17 -258 -45 -605 -214 -399 -194 -387 -189 -433 -186 -23 1 -52 3 -64 3
-48 2 -29 18 107 94 468 260 744 382 911 405 80 11 249 13 249 4z m-325 -277
c-41 -34 -168 -94 -300 -143 -101 -37 -195 -60 -195 -49 0 5 149 80 245 123
91 40 237 93 260 93 17 0 16 -3 -10 -24z"/>
<path d="M1891 3020 c-98 -28 -168 -69 -245 -145 -110 -108 -163 -227 -187
-415 -6 -52 -15 -99 -19 -104 -5 -4 -29 4 -55 20 -46 26 -48 27 -61 9 -22 -29
-87 -204 -81 -218 3 -6 58 -39 122 -72 138 -70 123 -47 211 -315 l59 -181 138
2 c75 0 137 4 137 7 0 7 -5 21 -74 215 -39 110 -43 127 -28 128 9 0 70 3 135
5 146 5 225 23 336 76 69 33 101 56 162 118 112 115 148 199 153 361 8 251
-140 446 -387 510 -89 23 -232 22 -316 -1z m290 -248 c107 -53 158 -150 146
-279 -18 -189 -190 -308 -432 -299 -108 4 -160 23 -167 59 -11 58 -8 178 6
247 27 128 85 213 177 261 90 46 192 51 270 11z"/>
<path d="M5157 2989 c-207 -31 -372 -169 -437 -365 -27 -80 -33 -232 -14 -316
47 -201 210 -361 410 -403 40 -8 110 -12 177 -11 168 5 273 50 381 166 l49 52
-44 25 c-128 75 -162 93 -170 93 -5 0 -29 -16 -54 -35 -25 -19 -64 -39 -87
-45 -48 -13 -158 -14 -211 -1 -73 17 -150 85 -176 154 l-11 27 363 2 c199 0
371 2 382 3 11 1 28 3 38 4 16 1 18 11 16 102 -3 174 -45 282 -157 400 -111
119 -282 174 -455 148z m206 -263 c21 -11 51 -32 67 -47 32 -32 76 -117 66
-127 -4 -3 -124 -7 -267 -7 -259 -2 -259 -2 -253 19 22 75 88 145 161 172 52
19 177 14 226 -10z"/>
<path d="M4487 2978 c-81 -17 -149 -64 -215 -147 l-19 -25 0 55 c-1 30 -1 67
-2 82 l-1 28 -132 -3 -133 -3 0 -518 c0 -286 3 -521 7 -523 4 -3 64 -6 133 -8
l125 -4 1 137 c1 231 7 404 13 444 17 109 106 177 251 195 l60 7 0 145 0 145
-25 1 c-14 0 -42 -3 -63 -8z"/>
<path d="M2801 2636 c2 -362 7 -423 40 -512 30 -81 121 -172 204 -205 50 -20
77 -24 165 -23 91 0 112 4 160 26 30 14 73 42 95 61 22 20 41 34 43 33 1 -2 3
-24 5 -50 1 -42 4 -46 27 -47 14 0 73 -2 133 -3 l107 -3 0 529 0 528 -134 0
-134 0 -2 -262 c-3 -443 -2 -442 -79 -511 -68 -61 -173 -72 -261 -27 -83 42
-88 66 -95 500 -2 140 -4 264 -4 275 -1 19 -9 20 -137 22 l-135 2 2 -333z"/>
<path d="M2360 1499 c-52 -17 -99 -32 -105 -33 -26 -5 -30 -20 -29 -115 l1
-101 -36 -1 c-20 -1 -57 -2 -83 -3 -25 0 -50 -5 -54 -9 -5 -5 -10 -62 -11
-128 l-2 -119 92 0 93 0 1 -217 c2 -357 12 -411 87 -488 69 -72 139 -94 294
-94 73 1 114 5 120 12 4 7 8 62 8 122 l-1 110 -87 6 c-102 7 -133 23 -141 71
-3 18 -4 132 -4 253 l2 220 70 2 c39 1 90 2 115 2 l46 1 -1 128 -1 127 -120 3
-120 3 1 105 c1 143 -3 174 -24 173 -9 0 -59 -14 -111 -30z"/>
<path d="M4417 1354 c-1 -1 -22 -4 -47 -7 -135 -17 -274 -105 -354 -225 -40
-61 -94 -193 -101 -247 -6 -56 -18 -112 -27 -129 -8 -15 -18 -17 -53 -13 -53
8 -58 3 -116 -128 -47 -108 -96 -166 -165 -201 -31 -15 -60 -19 -144 -18 -94
0 -111 3 -157 27 -28 15 -63 41 -76 59 -35 47 -58 96 -49 102 5 3 31 -6 58
-20 55 -29 170 -39 245 -23 52 12 112 58 146 113 35 55 42 170 14 233 -24 52
-74 100 -130 126 -56 25 -158 26 -221 2 -25 -9 -55 -19 -68 -22 -23 -6 -23 -6
-8 33 21 50 85 108 142 128 63 21 177 15 230 -12 48 -24 100 -81 121 -130 14
-33 16 -34 53 -28 66 10 150 47 150 65 0 26 -66 131 -113 179 -46 47 -137 96
-207 111 -64 14 -235 7 -296 -13 -78 -24 -168 -90 -214 -154 -56 -78 -78 -157
-81 -286 -1 -58 -7 -130 -14 -159 -16 -68 -11 -179 10 -237 47 -131 122 -204
266 -258 223 -83 495 -11 620 163 64 89 92 61 173 -173 35 -100 69 -188 75
-196 8 -9 40 -14 104 -15 77 -2 98 1 116 16 l22 18 -51 144 c-28 79 -49 145
-48 146 2 1 57 5 123 9 146 8 172 11 256 36 163 48 322 210 365 373 7 26 12
85 12 130 -2 267 -209 469 -492 480 -37 1 -68 2 -69 1z m180 -255 c84 -41 124
-115 128 -236 4 -136 -101 -253 -259 -292 -93 -23 -274 -13 -298 17 -22 26
-15 245 10 314 40 111 132 202 221 218 59 11 152 1 198 -21z m-1230 -250 c37
-12 54 -36 55 -80 3 -89 -133 -112 -210 -36 -42 42 -38 67 18 100 45 26 90 32
137 16z"/>
<path d="M1495 1273 c-140 -22 -219 -57 -280 -125 -51 -57 -77 -127 -76 -205
2 -166 82 -244 326 -318 177 -53 231 -96 201 -156 -17 -36 -62 -53 -136 -52
-94 1 -150 32 -196 109 -11 18 -7 20 -201 -86 l-42 -23 16 -30 c29 -56 111
-134 176 -165 187 -91 450 -65 576 58 64 62 86 120 86 225 -1 101 -22 157 -79
208 -42 38 -154 90 -251 116 -150 42 -218 91 -195 143 17 36 61 58 115 58 59
0 107 -23 144 -67 l28 -34 112 61 111 62 -17 30 c-27 46 -112 118 -168 143
-80 35 -192 57 -250 48z"/>
<path d="M5457 1274 c-1 -1 -20 -4 -42 -7 -140 -18 -269 -113 -299 -219 -19
-65 -23 -108 -13 -170 8 -44 50 -117 86 -146 36 -29 152 -82 236 -107 182 -56
231 -93 203 -153 -19 -39 -63 -56 -139 -55 -81 1 -130 23 -167 72 -15 20 -31
39 -37 43 -8 6 -66 -22 -190 -92 -40 -23 -36 -49 17 -114 86 -105 210 -155
383 -154 147 1 253 38 332 116 60 59 77 103 80 202 2 73 -1 93 -22 138 -41 88
-108 137 -250 182 -173 55 -215 72 -240 102 -14 16 -25 35 -25 42 0 41 72 82
140 77 35 -2 120 -45 120 -60 0 -4 11 -13 24 -21 22 -11 33 -8 123 40 54 28
102 55 106 59 14 14 -73 111 -134 151 -63 41 -153 68 -237 73 -29 2 -54 2 -55
1z"/>
</g>
</svg>
