<svg width="137" height="52" viewBox="0 0 137 52" fill="none" xmlns="http://www.w3.org/2000/svg">
<g clip-path="url(#clip0_343_379)">
<path fill-rule="evenodd" clip-rule="evenodd" d="M23.0711 0.147461C19.1019 0.59678 14.7752 2.16394 11.4977 4.33913C6.69394 7.52717 2.80726 12.6506 1.09032 18.0583C0.192133 20.8872 0 22.3032 0 26.0946V29.4409L0.643419 30.7088C1.3006 32.0035 2.79606 33.9259 3.65567 34.5808L4.13434 34.9454L3.67987 33.5367C1.61619 27.1394 2.05431 21.2039 5.02042 15.3771C6.18017 13.0989 7.44901 11.367 9.37971 9.42717C17.236 1.53354 29.5933 0.350789 39.0205 6.59011C40.7075 7.70675 43.5515 10.4358 44.7064 12.0464C48.106 16.7869 49.7203 22.2613 49.2675 27.5135C49.1922 28.3871 49.1591 29.176 49.1937 29.2665C49.2285 29.3571 49.7285 29.8191 50.3049 30.2933C51.4715 31.2529 51.3276 31.2839 51.5893 30.0175C51.8273 28.8669 51.9417 25.9164 51.8135 24.2379C51.1739 15.858 46.9476 8.68467 39.9786 4.15094C35.1468 1.00767 28.7829 -0.499285 23.0711 0.147461ZM74.541 3.67846C74.1014 3.78497 73.2164 4.13021 72.5743 4.44579C69.7913 5.81356 67.9811 8.74957 67.6329 12.4608C67.5783 13.0432 67.5017 13.673 67.4628 13.8601L67.392 14.2007L66.8276 13.8462C65.5323 13.0329 65.6967 12.9394 64.9179 14.9309C64.5345 15.9114 64.2208 16.7804 64.2208 16.862C64.2208 16.9435 64.9796 17.3822 65.907 17.8368C66.8344 18.2915 67.7456 18.7813 67.9318 18.9253C68.1799 19.1173 68.5453 20.0374 69.2987 22.3671L70.3268 25.547H72.4932C73.6846 25.547 74.6595 25.5205 74.6595 25.4881C74.6595 25.4559 74.2317 24.245 73.7085 22.7973L72.7577 20.1651L74.881 20.1545C77.4026 20.142 78.6968 19.8503 80.5799 18.8706C87.4744 15.2837 86.472 5.44579 79.0335 3.69239C77.8696 3.41811 75.6451 3.41114 74.541 3.67846ZM124.457 4.22325C122.437 4.49344 120.872 5.32067 119.469 6.85849C118.008 8.46031 117.327 10.3145 117.327 12.6877C117.327 15.2176 118.071 17.0837 119.74 18.7391C120.285 19.28 121.083 19.9111 121.512 20.1418C123.949 21.4518 127.847 21.5084 130.296 20.2694C131.228 19.7978 132.406 18.8347 132.902 18.1378L133.208 17.7081L131.544 16.7727L129.879 15.8373L129.405 16.2364C128.337 17.135 127.811 17.3028 126.097 17.2912C124.334 17.2792 123.762 17.1043 122.841 16.2954C122.332 15.8489 121.709 14.8654 121.709 14.5092C121.709 14.4028 123.668 14.3518 127.745 14.3518C133.108 14.3518 133.79 14.3252 133.872 14.1125C134.044 13.6642 133.96 11.4046 133.736 10.4547C133.271 8.48179 131.932 6.51795 130.317 5.43959C128.761 4.40026 126.555 3.94261 124.457 4.22325ZM114.145 4.42597C113.687 4.52779 113.036 4.75547 112.698 4.93187C112.014 5.28845 111.069 6.25894 110.87 6.80857C110.775 7.07316 110.721 6.83217 110.665 5.87983L110.59 4.5939H108.547H106.505L106.466 12.6499L106.427 20.7058H108.538H110.649L110.695 16.1294C110.739 11.7801 110.757 11.5231 111.067 10.9479C111.713 9.7479 112.896 9.05229 114.485 8.93822L115.507 8.86485V6.54034C115.507 3.90843 115.628 4.09632 114.145 4.42597ZM88.3802 4.61492C88.3224 4.67271 88.2764 7.10842 88.2778 10.0276C88.2807 15.7639 88.3725 16.684 89.0825 18.0851C89.6127 19.1314 90.6058 20.0698 91.7548 20.6104C92.5731 20.9952 92.9714 21.0831 94.128 21.134C96.0268 21.2173 97.3115 20.8338 98.3939 19.8606L99.1678 19.165V19.9353V20.7058H101.287H103.406L103.367 12.6499L103.328 4.5939H101.286H99.2434L99.1678 9.73761C99.0952 14.6765 99.0788 14.9061 98.7584 15.5052C98.0775 16.7782 97.0522 17.2948 95.3929 17.201C94.1573 17.1311 93.3151 16.6506 92.8752 15.7647C92.613 15.2367 92.5799 14.7021 92.5112 9.8889L92.4356 4.5939L90.4604 4.55184C89.3741 4.52884 88.438 4.55713 88.3802 4.61492ZM78.8546 7.6352C80.2679 8.31735 81.0135 9.6181 81.0135 11.4018C81.0135 12.6539 80.6636 13.5984 79.8745 14.4762C78.4374 16.0744 76.0925 16.7862 73.5182 16.4055C72.7764 16.296 72.1202 16.1132 71.9861 15.9792C71.6407 15.6338 71.6436 12.6402 71.9907 11.3299C72.8837 7.95774 76.0226 6.26818 78.8546 7.6352ZM127.429 8.23928C128.282 8.58739 128.812 9.05335 129.277 9.8647C130.075 11.2553 130.294 11.1748 125.7 11.1748H121.672L121.767 10.6831C122.175 8.59419 125.151 7.30963 127.429 8.23928ZM23.2929 13.4497C22.8573 13.9311 22.8106 15.3473 23.2012 16.2303L23.5158 16.9417L23.1351 18.3322C22.4567 20.8084 22.5665 20.658 18.08 25.2585L13.921 29.5231L11.1634 30.8613C9.3422 31.7453 8.32208 32.3274 8.15944 32.5758C7.63705 33.373 8.27351 35.2512 9.30634 35.9606C9.82933 36.3197 9.85672 36.322 12.708 36.2362C15.7445 36.1448 18.578 35.7858 21.18 35.1628C22.0121 34.9636 22.7098 34.8174 22.7304 34.8382C22.8131 34.9208 18.7333 37.1117 15.8497 38.5332C12.1575 40.3533 11.3053 40.5742 9.45445 40.1916C7.38123 39.7628 4.6543 38.2654 2.37624 36.3049L1.28411 35.3648L1.59743 36.1669C2.09909 37.4512 3.36459 39.7447 4.28925 41.0454C5.36187 42.5544 7.79469 45.1029 9.37971 46.3781C13.7631 49.9044 18.7847 51.7621 24.509 51.9745C29.254 52.1506 32.6945 51.4301 36.9137 49.377C41.3285 47.2288 44.703 44.2991 47.2347 40.4164C48.1361 39.0341 49.6308 35.9929 50.1651 34.4538C50.4933 33.5091 50.4989 33.4296 50.2639 33.071C49.819 32.3917 47.5388 30.699 46.1426 30.0113C44.8783 29.3884 43.322 28.886 41.9337 28.6523L41.3561 28.5551L42.0281 28.0421C43.0034 27.2973 43.148 26.6993 42.5491 25.8857C41.4198 24.3515 41.0284 23.9048 40.404 23.437C40.0213 23.1501 39.3369 22.4497 38.8831 21.8803C38.1965 21.0182 38.0727 20.7728 38.1444 20.4146C38.2172 20.0505 38.0695 19.778 37.1847 18.643C36.5316 17.8055 36.0145 17.2837 35.8077 17.2535C35.4228 17.1974 35.3972 16.9544 35.647 15.7225C35.9676 14.1421 35.3296 12.9836 34.2673 13.217C33.5503 13.3744 33.2695 13.9198 33.4611 14.7824C33.5471 15.1697 33.7335 15.7494 33.8754 16.0709L34.1332 16.6553L33.4434 17.3164C31.3149 19.3558 28.9279 19.3102 27.4051 17.2013C26.5885 16.0703 25.8885 15.5621 25.147 15.5621C24.5974 15.5621 24.5568 15.5344 24.6497 15.2217C24.9364 14.2576 24.9234 13.7836 24.6015 13.4617C24.1968 13.057 23.6529 13.052 23.2929 13.4497ZM24.0328 14.4653C23.9761 14.6942 23.8785 15.0515 23.816 15.2595C23.7056 15.6267 23.7019 15.6246 23.6913 15.1839C23.6771 14.5969 23.8258 14.0493 23.9994 14.0493C24.0744 14.0493 24.0895 14.2364 24.0328 14.4653ZM34.8832 14.4585C34.9688 14.6836 34.9947 15.129 34.9406 15.4485C34.8603 15.9241 34.8043 15.9974 34.6307 15.8533C34.3546 15.6241 34.0481 14.593 34.1653 14.2875C34.309 13.9128 34.7122 14.0087 34.8832 14.4585ZM26.0338 16.8924C26.3597 17.2081 26.9502 17.8244 27.3461 18.2621C27.7419 18.6999 28.3024 19.157 28.5915 19.2777C28.9446 19.4253 29.221 19.7007 29.4331 20.1163C29.6066 20.4567 29.7143 20.7697 29.6721 20.8117C29.6301 20.8539 29.0636 20.7123 28.4134 20.497C26.8717 19.9868 25.4364 19.791 24.508 19.9644C24.106 20.0396 23.7568 20.0806 23.7319 20.0556C23.7069 20.0306 23.8544 19.6786 24.0596 19.2733C24.3216 18.7558 24.4326 18.2889 24.4326 17.7042C24.4326 16.2536 25.0506 15.9402 26.0338 16.8924ZM34.8714 17.6043C34.8714 17.7847 31.2686 21.1632 30.9555 21.2766C30.8325 21.3211 30.0886 19.8309 30.1936 19.7503C30.2285 19.7235 30.6996 19.5827 31.2405 19.4373C32.3413 19.1414 33.3313 18.5644 34.101 17.7701C34.6075 17.2474 34.8714 17.1907 34.8714 17.6043ZM36.6432 19.1772L37.424 20.2205L36.1602 21.3709C35.4651 22.0036 34.7757 22.5213 34.6281 22.5213C34.2416 22.5213 31.8341 21.7191 31.8815 21.6063C31.9432 21.4591 35.6682 18.134 35.7712 18.134C35.8214 18.134 36.2139 18.6034 36.6432 19.1772ZM27.6305 21.0733C28.3263 21.2754 29.1928 21.5674 29.5562 21.7222L30.217 22.0037L29.1886 22.7977C28.4953 23.3329 28.0827 23.5567 27.9226 23.4845C27.7921 23.4255 27.1255 23.3479 26.4413 23.3122C24.9348 23.2332 23.878 23.5214 22.7237 24.3262C21.4435 25.2187 21.5941 25.8989 23.2104 26.5258C23.6329 26.6898 23.9788 26.8495 23.9788 26.8809C23.9788 26.9122 23.7031 27.2509 23.3662 27.6337C22.5659 28.5427 22.5791 29.0978 23.4116 29.5633L23.9791 29.8805L22.5039 30.7116C20.527 31.8252 17.4735 33.13 17.4735 32.861C17.4735 32.8155 17.9031 32.2916 18.4281 31.6967C19.8425 30.0942 20.0454 29.7895 20.0454 29.2668C20.0454 28.6075 19.7364 28.2288 18.6705 27.5813C17.7836 27.0424 17.7646 27.0179 18.1048 26.8489C18.2991 26.7524 18.4797 26.5061 18.508 26.2996C18.536 26.0937 18.6974 25.7759 18.8667 25.5933C19.1537 25.2837 19.1986 25.2774 19.5349 25.4978C20.0676 25.8467 20.4051 25.5247 20.3031 24.765C20.2048 24.0321 20.4867 23.7509 20.9759 24.0936C21.2839 24.3093 21.3385 24.3085 21.5857 24.0848C21.7957 23.8948 21.8361 23.7066 21.7641 23.2557C21.6597 22.6031 21.7107 22.5672 22.2451 22.9173C22.8195 23.2937 23.1267 22.9662 22.9989 22.1138C22.9136 21.5443 22.9367 21.4623 23.1829 21.4623C23.3376 21.4623 23.5382 21.5361 23.6286 21.6264C23.7187 21.7166 23.9537 21.7677 24.1505 21.7399C24.4305 21.7002 24.5186 21.5824 24.5556 21.1975L24.6031 20.7058H25.4842C25.9692 20.7058 26.9343 20.871 27.6305 21.0733ZM38.3319 22.4344L39.2612 23.558L38.4387 23.742C37.6635 23.9155 37.5592 23.9019 36.622 23.5035C36.0751 23.2712 35.626 23.0402 35.6235 22.9902C35.6205 22.9223 37.2894 21.3347 37.385 21.3146C37.3946 21.3126 37.8207 21.8166 38.3319 22.4344ZM34.3419 23.3874C35.4235 23.8455 36.3674 24.2553 36.4393 24.2981C36.5113 24.3409 36.2181 24.5792 35.7877 24.8276L35.0052 25.2793L33.5184 24.8081C30.9965 24.0085 30.1529 24.1872 28.3282 25.9075C27.4276 26.7565 27.3166 26.9217 27.3879 27.3055C27.4626 27.7073 27.3854 27.7957 26.3804 28.4592C25.782 28.8544 25.1499 29.1774 24.9759 29.1769C24.5236 29.1757 23.5249 28.8816 23.5249 28.7495C23.5249 28.3489 30.0711 22.883 30.9151 22.5787C31.6459 22.3154 32.0187 22.4034 34.3419 23.3874ZM27.2649 24.156C27.3879 24.2343 27.0154 24.6129 26.1472 25.292C24.7198 26.4082 24.8354 26.3895 23.3736 25.7433C22.5749 25.3902 22.5537 25.3662 22.8441 25.1423C23.0106 25.014 23.5552 24.7122 24.0544 24.4716C24.7919 24.1164 25.1606 24.0347 26.0211 24.0365C26.6036 24.0377 27.1632 24.0916 27.2649 24.156ZM40.7358 24.7547C40.9512 25.0802 40.9255 25.1335 40.2077 25.8515C39.5654 26.4936 39.367 26.606 38.8745 26.606C38.0231 26.606 35.572 26.2837 35.4279 26.1527C35.3597 26.0907 35.6661 25.8157 36.1087 25.5414C37.9912 24.3754 40.2329 23.9943 40.7358 24.7547ZM32.7534 25.4194C34.1553 25.8238 34.3824 26.0005 33.5022 26.002C32.4279 26.0038 30.9603 26.2849 29.6142 26.7468C28.9276 26.9824 28.3661 27.129 28.3661 27.0725C28.3661 26.9557 29.2547 26.1017 30.004 25.4984C30.6292 24.9951 31.2228 24.978 32.7534 25.4194ZM42.1331 26.7518C42.1331 26.9335 41.7586 27.2716 41.0677 27.7137C40.0742 28.3492 39.9134 28.4019 38.685 28.4917C37.9605 28.5447 36.8229 28.6913 36.1573 28.8173C34.5924 29.1137 30.8794 30.5808 27.9279 32.0692L25.5986 33.2438L23.3075 32.923C21.0352 32.6047 21.0116 32.6046 20.4195 32.8945C20.091 33.0553 19.6726 33.4252 19.4895 33.7164C18.6729 35.0149 18.9711 34.9093 15.2042 35.2335C11.4321 35.5581 9.97018 35.6016 9.84114 35.3928C9.7071 35.1758 10.56 34.9583 12.8593 34.6229C18.0299 33.8684 20.1292 33.0881 25.023 30.1016C28.2924 28.1063 29.1584 27.6536 30.4841 27.2465C32.1845 26.7243 33.1207 26.6943 36.1394 27.0657C37.66 27.2527 39.14 27.3615 39.4285 27.3075C39.7813 27.2412 40.1978 26.9598 40.7025 26.4464L41.4523 25.6836L41.7927 26.0775C41.98 26.2943 42.1331 26.5976 42.1331 26.7518ZM81.3917 27.1836L79.5763 27.7453L79.5333 29.3692L79.4903 30.9933H78.0583H76.6262V33.0356V35.078H78.0634H79.5006L79.5024 39.1249C79.5046 44.0938 79.6317 44.7494 80.836 46.0093C81.5876 46.7955 82.7185 47.1904 84.5074 47.2916C85.3058 47.3367 86.2758 47.3261 86.6632 47.268L87.3675 47.1622V45.295V43.4279L85.9334 43.3755C84.602 43.3268 84.4695 43.2931 84.0802 42.9038L83.661 42.4846L83.6135 38.786L83.566 35.0875L85.4289 35.0448L87.2918 35.0023V33.0356V31.0689L85.4386 31.0264L83.5853 30.9839V28.7949C83.5853 27.1403 83.5392 26.6079 83.3962 26.614C83.2923 26.6184 82.3902 26.8746 81.3917 27.1836ZM17.4068 27.7358C17.6814 27.9435 17.6625 27.9582 17.1146 27.9627C16.6107 27.9669 16.555 27.9358 16.7171 27.7406C16.9514 27.4582 17.039 27.4576 17.4068 27.7358ZM19.064 28.9336C19.4676 29.2288 19.324 29.4772 17.569 31.5202C16.4018 32.879 15.9579 33.2908 15.5351 33.4076C15.2376 33.4898 14.9779 33.5405 14.9578 33.5205C14.9378 33.5004 15.1537 33.1108 15.4375 32.6547C16.0071 31.7397 16.0818 31.2873 15.723 30.9283C15.3979 30.6034 15.2103 30.614 12.9349 31.0857C12.7212 31.13 13.2472 30.6831 14.1452 30.0574C15.5759 29.0609 15.8239 28.942 16.6414 28.8604C18.2301 28.7023 18.7699 28.7185 19.064 28.9336ZM111.602 29.6253C108.1 30.5748 105.996 33.1243 105.293 37.2663C105.167 38.0122 104.992 38.6929 104.905 38.7792C104.818 38.8653 104.396 38.9358 103.968 38.9358H103.19L102.761 39.9948C101.96 41.9728 101.682 42.5034 101.173 43.0283C100.133 44.0985 98.5891 44.5407 96.7763 44.2873C95.6088 44.1241 95.0475 43.853 94.2151 43.0501C93.6616 42.5162 93.1229 41.5264 93.2931 41.3562C93.3236 41.3255 93.79 41.5153 94.3294 41.7778C95.1888 42.1961 95.4596 42.2541 96.5203 42.2457C98.3605 42.2315 99.5355 41.604 100.279 40.2385C101.621 37.7719 100.238 34.9271 97.4811 34.4827C96.505 34.3253 95.2676 34.5011 94.4284 34.9164C94.0903 35.0837 93.7861 35.1931 93.7525 35.1594C93.5741 34.9811 94.1201 33.9674 94.6543 33.4848C95.417 32.7958 96.0463 32.5273 97.1746 32.4093C98.9894 32.2197 100.762 33.187 101.388 34.7081C101.54 35.0772 101.726 35.3796 101.801 35.3799C101.876 35.3802 102.54 35.1997 103.276 34.9789C104.271 34.6802 104.614 34.512 104.614 34.3223C104.614 33.7743 103.671 32.214 102.898 31.483C101.383 30.0501 99.3694 29.3694 97.1661 29.545C94.2036 29.7813 92.0381 31.2131 91.0086 33.6162C90.6106 34.5454 90.528 35.0819 90.4812 37.0447C90.4604 37.9184 90.3528 39.1205 90.2422 39.7159C89.6026 43.1616 91.7616 46.2413 95.4219 47.1043C97.4431 47.5808 100.209 47.2495 101.902 46.3282C102.621 45.9367 103.982 44.6315 104.483 43.853C104.722 43.4808 104.734 43.4789 105.252 43.7258C105.757 43.9666 105.808 44.0713 106.562 46.4094C106.994 47.7475 107.478 49.1494 107.639 49.5245L107.932 50.2065H109.571C111.26 50.2065 111.573 50.1074 111.573 49.5739C111.573 49.4256 111.233 48.3693 110.817 47.2267C110.401 46.084 110.06 45.1199 110.06 45.0842C110.06 45.0486 110.52 45.0621 111.082 45.1143C112.379 45.2348 114.541 44.9969 115.809 44.5937C118.484 43.7439 120.563 41.7811 121.421 39.2969C121.888 37.9436 121.886 35.8421 121.417 34.4728C120.346 31.3451 117.799 29.5461 114.221 29.391C113.031 29.3394 112.472 29.3895 111.602 29.6253ZM42.7382 30.6243C44.9378 31.1883 47.7306 32.7984 47.7306 33.5023C47.7306 34.0138 47.3344 33.9807 45.6872 33.3314C42.0651 31.9037 39.634 31.7589 35.9304 32.7504C32.5514 33.655 29.5838 35.0463 21.7095 39.4177C19.0053 40.919 16.4491 42.3209 16.029 42.533C14.7249 43.192 12.0891 44.0038 11.2538 44.0038C10.5109 44.0038 10.4498 43.9698 9.44038 42.9955C8.86595 42.4409 8.42207 41.9609 8.45415 41.9289C8.48607 41.897 8.96973 41.9504 9.52888 42.0478C12.1262 42.5002 14.9133 41.42 22.8903 36.8701C29.7517 32.9565 33.4308 31.297 36.9568 30.5256C38.5359 30.1802 41.1822 30.2253 42.7382 30.6243ZM67.156 30.7548C65.3125 31.1746 63.8878 32.1522 63.1907 33.4758C62.8333 34.1542 62.7849 34.4168 62.7848 35.6831C62.7845 36.8724 62.8415 37.2271 63.1155 37.7398C63.7993 39.0194 65.2249 39.8884 67.9341 40.6772C69.8249 41.2277 70.0392 41.3223 70.6126 41.8569C71.8736 43.033 69.8382 44.2975 67.6584 43.6922C67.0014 43.5097 66.1203 42.7899 65.8031 42.1763L65.5854 41.7553L63.8441 42.7459C62.8863 43.2907 62.1028 43.8146 62.1028 43.91C62.1028 44.2329 63.1388 45.6244 63.7194 46.0813C65.9997 47.876 69.8657 48.1714 72.6701 46.7654C74.4581 45.8689 75.3668 44.2193 75.2317 42.1146C75.0736 39.6497 73.6701 38.3771 70.054 37.4196C67.5345 36.7522 66.7144 36.1486 67.0911 35.2389C67.6229 33.9554 70.1698 34.0822 71.0574 35.4364L71.4064 35.9689L72.9952 35.1258C73.8689 34.6621 74.6727 34.2001 74.7813 34.0993C74.9415 33.9506 74.8619 33.7681 74.3604 33.1336C72.8012 31.1612 69.7684 30.1598 67.156 30.7548ZM128.215 30.7122C127.179 30.8833 125.729 31.5504 124.999 32.1916C124.694 32.4592 124.255 33.065 124.022 33.5376C123.655 34.2858 123.601 34.5736 123.601 35.7588C123.602 36.8672 123.664 37.2354 123.933 37.7398C124.616 39.0206 126.047 39.892 128.751 40.674C130.733 41.2474 131.651 41.7374 131.792 42.2969C132.015 43.1857 131.159 43.827 129.727 43.8432C128.335 43.8589 127.268 43.2928 126.734 42.2534L126.475 41.75L124.697 42.7379C123.72 43.2813 122.92 43.8112 122.92 43.9158C122.92 44.3551 124.176 45.8253 125.052 46.4097C126.25 47.2103 127.197 47.4935 129.007 47.5935C133.299 47.8306 136.081 45.8323 136.081 42.5123C136.081 39.8344 134.648 38.4043 130.998 37.4415C128.443 36.7678 127.51 36.1277 127.884 35.3067C128.269 34.461 129.574 34.1064 130.708 34.5392C131.314 34.7706 132.029 35.4026 132.173 35.8327C132.202 35.9212 132.975 35.5837 133.889 35.083C134.804 34.5821 135.616 34.1504 135.695 34.1237C135.928 34.0442 135.209 33.0174 134.445 32.338C133.536 31.5293 132.184 30.8972 130.938 30.6985C129.809 30.5185 129.373 30.5208 128.215 30.7122ZM15.0529 31.6506C15.0529 31.7625 14.7845 32.2692 14.4566 32.7768C13.8122 33.7737 13.8519 33.755 11.9942 33.9361C11.5184 33.9825 10.6826 34.1825 10.1371 34.3805C9.04204 34.778 9.01693 34.7674 8.78864 33.8138C8.67442 33.3371 8.95596 32.7733 9.43675 32.5161C9.59303 32.4324 10.6312 32.2249 11.7439 32.0547C12.8566 31.8845 13.9712 31.684 14.2209 31.6091C14.8768 31.4125 15.0529 31.4212 15.0529 31.6506ZM115.71 33.2394C117.091 33.8571 117.841 35.1122 117.847 36.8177C117.857 39.3696 115.905 41.2535 112.935 41.5583C111.579 41.6973 109.633 41.5235 109.347 41.2377C109.002 40.8923 109 37.7052 109.345 36.5721C110.247 33.6067 113.142 32.0911 115.71 33.2394ZM22.6172 33.6171L23.7519 33.8016L22.3146 34.1364C20.0764 34.6577 19.8941 34.6836 19.8941 34.4801C19.8941 34.1581 20.7655 33.4135 21.1305 33.4234C21.3242 33.4285 21.9932 33.5158 22.6172 33.6171ZM43.3332 34.34C44.5312 34.6445 46.4147 35.4494 46.6813 35.7704C46.7969 35.9097 46.7724 36.0982 46.5937 36.4441C46.3126 36.9875 46.3898 36.9892 44.4024 36.3994C41.9952 35.6854 39.7497 35.7143 36.6627 36.4991C33.3325 37.3457 30.2177 38.7901 23.0711 42.8016C17.2638 46.0612 15.874 46.7642 15.2045 46.781C14.8605 46.7896 14.36 46.6138 13.777 46.2798C13.0174 45.8444 12.9243 45.7471 13.1718 45.6474C13.3328 45.5826 14.2393 45.2241 15.1864 44.8506C16.1336 44.477 18.0057 43.5613 19.3467 42.8156C22.3001 41.1734 29.4712 37.3291 31.2408 36.4394C35.7763 34.1589 39.844 33.4527 43.3332 34.34ZM97.4348 37.4161C97.6912 37.6724 97.8062 37.9556 97.8062 38.3306C97.8062 38.7056 97.6912 38.9889 97.4348 39.2451C96.6492 40.0309 94.4962 39.5131 94.2359 38.4757C94.0528 37.7462 95.0446 37.046 96.2623 37.0453C96.9116 37.0448 97.1339 37.115 97.4348 37.4161ZM42.5235 37.8125C43.9458 38.0102 45.0644 38.4058 45.1275 38.7335C45.1532 38.8672 45.0154 39.1613 44.8211 39.3872L44.4679 39.7978L41.5984 39.8294C38.9989 39.8581 38.5886 39.8999 37.2338 40.2731C34.0361 41.1542 30.0688 42.9931 24.2552 46.289C19.4564 49.0096 19.9523 48.8208 18.6815 48.4114C18.1003 48.2242 17.6248 48.0196 17.6248 47.9566C17.6248 47.8935 17.8667 47.7267 18.1625 47.5857C18.4582 47.4445 20.926 46.0932 23.6466 44.5825C31.7632 40.0754 33.9662 39.0295 37.0008 38.2429C39.166 37.6817 40.7154 37.5609 42.5235 37.8125ZM42.7878 41.5622C43.0267 41.6563 42.9623 41.7666 42.3157 42.3715C41.7025 42.945 41.4334 43.0886 40.8288 43.1649C38.9485 43.4023 37.3553 43.7407 36.2028 44.1475C34.7624 44.656 31.2506 46.3164 28.0733 47.9914C25.3393 49.4327 25.1075 49.509 23.8712 49.3766C23.0693 49.2908 22.9221 49.2354 23.0904 49.0829C23.2047 48.9795 24.6936 48.1418 26.3994 47.2212C33.2898 43.5026 35.0642 42.6771 37.5189 42.048C39.4916 41.5424 42.122 41.2999 42.7878 41.5622ZM38.0461 45.8357C36.9167 46.732 32.4431 48.5749 30.9379 48.7639C30.339 48.8391 30.5211 48.7168 32.4508 47.7481C34.4549 46.7421 38.172 45.3061 38.3487 45.4695C38.389 45.5068 38.2529 45.6716 38.0461 45.8357Z" fill="#0058E2"/>
</g>
<defs>
<clipPath id="clip0_343_379">
<rect width="136.081" height="52" fill="white"/>
</clipPath>
</defs>
</svg>
