<svg width="210" height="80" viewBox="0 0 210 80" fill="none" xmlns="http://www.w3.org/2000/svg">
<path fill-rule="evenodd" clip-rule="evenodd" d="M35.4939 0.226864C29.3876 0.918123 22.731 3.32914 17.6888 6.67558C10.2984 11.5803 4.31886 19.4625 1.67741 27.782C0.295589 32.1342 0 34.3127 0 40.1456V45.2937L0.989875 47.2444C2.00093 49.2362 4.30163 52.1937 5.6241 53.2013L6.36052 53.7622L5.66134 51.5949C2.48644 41.7529 3.16047 32.6213 7.72372 23.6571C9.50796 20.1521 11.46 17.4876 14.4303 14.5033C26.5169 2.35929 45.5281 0.539675 60.0316 10.1386C62.6269 11.8565 67.0023 16.0551 68.7791 18.5329C74.0092 25.826 76.4928 34.2482 75.7962 42.3285C75.6803 43.6724 75.6293 44.8862 75.6826 45.0253C75.7362 45.1648 76.5054 45.8756 77.3922 46.605C79.1869 48.0813 78.9655 48.129 79.3682 46.1807C79.7343 44.4107 79.9103 39.8714 79.7131 37.2891C78.7291 24.397 72.2271 13.361 61.5056 6.38606C54.0721 1.55027 44.2813 -0.768131 35.4939 0.226864ZM114.679 5.65918C114.002 5.82303 112.641 6.35416 111.653 6.83968C107.371 8.94394 104.586 13.4609 104.051 19.1704C103.967 20.0665 103.849 21.0354 103.789 21.3233L103.68 21.8472L102.812 21.3019C100.819 20.0506 101.072 19.9068 99.8737 22.9707C99.2839 24.4791 98.8012 25.816 98.8012 25.9415C98.8012 26.0669 99.9687 26.7419 101.395 27.4413C102.822 28.1407 104.224 28.8943 104.51 29.1159C104.892 29.4113 105.454 30.8268 106.613 34.4109L108.195 39.303H111.528C113.361 39.303 114.861 39.2623 114.861 39.2125C114.861 39.1629 114.203 37.3 113.398 35.0728L111.935 31.0233L115.201 31.007C119.081 30.9877 121.072 30.5389 123.969 29.0317C134.576 23.5135 133.034 8.37814 121.59 5.6806C119.799 5.25863 116.377 5.24791 114.679 5.65918ZM191.472 6.4973C188.365 6.91299 185.956 8.18565 183.798 10.5515C181.551 13.0159 180.502 15.8684 180.502 19.5195C180.502 23.4117 181.647 26.2827 184.215 28.8294C185.055 29.6615 186.281 30.6325 186.941 30.9874C190.69 33.0028 196.688 33.0898 200.456 31.1836C201.89 30.4582 203.701 28.9765 204.464 27.9042L204.935 27.2432L202.375 25.8042L199.814 24.3651L199.085 24.9791C197.442 26.3616 196.632 26.6197 193.995 26.6018C191.282 26.5834 190.403 26.3143 188.986 25.0698C188.204 24.383 187.245 22.8699 187.245 22.3218C187.245 22.1582 190.258 22.0797 196.53 22.0797C204.782 22.0797 205.831 22.0388 205.956 21.7115C206.221 21.0219 206.092 17.5456 205.747 16.0842C205.032 13.0489 202.972 10.0276 200.488 8.3686C198.093 6.76963 194.701 6.06556 191.472 6.4973ZM175.608 6.80919C174.904 6.96583 173.902 7.31611 173.381 7.58749C172.329 8.13608 170.875 9.62915 170.569 10.4747C170.422 10.8818 170.341 10.511 170.255 9.04589L170.138 7.06754H166.996H163.854L163.794 19.4613L163.733 31.8551H166.981H170.229L170.3 24.8145C170.367 18.1233 170.396 17.7278 170.872 16.8429C171.866 14.9968 173.686 13.9266 176.131 13.7511L177.703 13.6382V10.0621C177.703 6.01296 177.889 6.30203 175.608 6.80919ZM135.97 7.09988C135.881 7.18879 135.81 10.936 135.812 15.4271C135.816 24.2522 135.958 25.6678 137.05 27.8232C137.866 29.4329 139.393 30.8766 141.161 31.7083C142.42 32.3004 143.033 32.4356 144.812 32.5138C147.734 32.642 149.71 32.052 151.375 30.5548L152.566 29.4846V30.6697V31.8551H155.826H159.087L159.027 19.4613L158.966 7.06754H155.824H152.682L152.566 14.9809C152.454 22.5792 152.429 22.9325 151.936 23.8542C150.888 25.8125 149.311 26.6074 146.758 26.4631C144.857 26.3555 143.562 25.6163 142.885 24.2534C142.482 23.4411 142.431 22.6185 142.325 15.2137L142.209 7.06754L139.17 7.00283C137.499 6.96745 136.058 7.01097 135.97 7.09988ZM121.315 11.7465C123.489 12.7959 124.636 14.7971 124.636 17.5412C124.636 19.4676 124.098 20.9207 122.884 22.2711C120.673 24.7298 117.065 25.8249 113.105 25.2393C111.964 25.0708 110.954 24.7896 110.748 24.5834C110.217 24.052 110.221 19.4464 110.755 17.4306C112.129 12.2427 116.958 9.64336 121.315 11.7465ZM196.045 12.6758C197.357 13.2114 198.172 13.9282 198.888 15.1765C200.115 17.3159 200.452 17.192 193.384 17.192H187.187L187.335 16.4356C187.962 13.2218 192.54 11.2456 196.045 12.6758ZM35.8352 20.6919C35.1651 21.4325 35.0932 23.6112 35.6941 24.9698L36.1782 26.0641L35.5924 28.2033C34.5488 32.0129 34.7177 31.7816 27.8154 38.8592L21.4169 45.4201L17.1744 47.479C14.3726 48.8389 12.8032 49.7345 12.553 50.1167C11.7493 51.343 12.7285 54.2326 14.3174 55.3239C15.1221 55.8765 15.1642 55.88 19.5508 55.748C24.2222 55.6074 28.5816 55.0551 32.5846 54.0967C33.8647 53.7901 34.9381 53.5653 34.9698 53.5972C35.0971 53.7243 28.8204 57.0949 24.3842 59.2818C18.7038 62.082 17.3927 62.4218 14.5453 61.8332C11.3557 61.1736 7.16047 58.8699 3.65576 55.8537L1.97556 54.4074L2.45758 55.6414C3.22937 57.6172 5.1763 61.1457 6.59885 63.1468C8.24903 65.4682 11.9918 69.3891 14.4303 71.3509C21.1739 76.776 28.8995 79.6339 37.7062 79.9607C45.0061 80.2316 50.2992 79.1233 56.7903 75.9647C63.5823 72.6597 68.7738 68.1525 72.6688 62.1791C74.0555 60.0524 76.355 55.3738 77.1771 53.0058C77.6819 51.5525 77.6906 51.4301 77.3291 50.8785C76.6446 49.8334 73.1366 47.2292 70.9886 46.1712C69.0435 45.2129 66.6493 44.44 64.5133 44.0804L63.6247 43.931L64.6586 43.1417C66.1591 41.9959 66.3816 41.0759 65.4602 39.8242C63.7227 37.4639 63.1206 36.7766 62.16 36.0569C61.5712 35.6156 60.5182 34.538 59.8202 33.6619C58.7638 32.3357 58.5734 31.9582 58.6837 31.4071C58.7957 30.8469 58.5685 30.4277 57.2072 28.6816C56.2024 27.3931 55.4069 26.5904 55.0887 26.5438C54.4966 26.4575 54.4573 26.0837 54.8415 24.1884C55.3347 21.7571 54.3532 19.9748 52.7189 20.3339C51.6159 20.576 51.1839 21.415 51.4786 22.7421C51.611 23.338 51.8977 24.2298 52.1161 24.7244L52.5127 25.6235L51.4513 26.6406C48.1768 29.7781 44.5045 29.708 42.1617 26.4635C40.9053 24.7235 39.8284 23.9417 38.6877 23.9417C37.8421 23.9417 37.7798 23.8991 37.9227 23.418C38.3637 21.9347 38.3437 21.2055 37.8484 20.7103C37.2258 20.0877 36.3891 20.08 35.8352 20.6919ZM36.9735 22.2543C36.8862 22.6064 36.7361 23.1562 36.64 23.4762C36.4701 24.0411 36.4645 24.0378 36.4482 23.3598C36.4263 22.4568 36.6551 21.6142 36.9221 21.6142C37.0375 21.6142 37.0608 21.9021 36.9735 22.2543ZM53.6664 22.2438C53.7981 22.5902 53.8379 23.2754 53.7548 23.7669C53.6312 24.4987 53.5451 24.6113 53.2779 24.3897C52.8532 24.0371 52.3816 22.4507 52.562 21.9808C52.7831 21.4043 53.4034 21.5519 53.6664 22.2438ZM40.0521 25.9883C40.5534 26.474 41.4618 27.4222 42.0709 28.0955C42.6798 28.7691 43.5421 29.4722 43.9869 29.658C44.5301 29.8851 44.9554 30.3088 45.2817 30.9481C45.5486 31.4718 45.7143 31.9533 45.6494 32.018C45.5847 32.083 44.7133 31.8651 43.713 31.5339C41.341 30.7489 39.133 30.4477 37.7046 30.7144C37.0862 30.8301 36.549 30.8932 36.5106 30.8548C36.4722 30.8164 36.6991 30.2748 37.0147 29.6512C37.4178 28.855 37.5887 28.1367 37.5887 27.2372C37.5887 25.0056 38.5395 24.5234 40.0521 25.9883ZM53.6482 27.0836C53.6482 27.361 48.1056 32.5587 47.6238 32.7333C47.4346 32.8017 46.2902 30.5091 46.4517 30.3851C46.5055 30.3439 47.2302 30.1272 48.0623 29.9035C49.7558 29.4483 51.2789 28.5606 52.4631 27.3386C53.2423 26.5345 53.6482 26.4472 53.6482 27.0836ZM56.3742 29.5034L57.5754 31.1085L55.631 32.8783C54.5618 33.8516 53.5011 34.6481 53.274 34.6481C52.6793 34.6481 48.9756 33.4141 49.0485 33.2404C49.1434 33.014 54.8741 27.8984 55.0326 27.8984C55.1099 27.8984 55.7136 28.6206 56.3742 29.5034ZM42.5085 32.4205C43.5789 32.7314 44.9121 33.1806 45.4711 33.4187L46.4878 33.8518L44.9056 35.0733C43.8389 35.8968 43.2042 36.241 42.9579 36.13C42.7571 36.0392 41.7316 35.9198 40.6789 35.8649C38.3612 35.7434 36.7354 36.1868 34.9596 37.425C32.9901 38.798 33.2216 39.8444 35.7083 40.8089C36.3584 41.0612 36.8904 41.307 36.8904 41.3552C36.8904 41.4033 36.4664 41.9245 35.948 42.5133C34.7168 43.9119 34.7371 44.7658 36.0179 45.482L36.8909 45.9701L34.6214 47.2486C31.5801 48.9618 26.8823 50.9692 26.8823 50.5554C26.8823 50.4854 27.5433 49.6794 28.3509 48.7642C30.5269 46.2987 30.839 45.83 30.839 45.0258C30.839 44.0115 30.3637 43.4289 28.7238 42.4328C27.3594 41.6037 27.3301 41.566 27.8536 41.3061C28.1524 41.1576 28.4303 40.7786 28.4738 40.4609C28.5169 40.1442 28.7652 39.6552 29.0257 39.3743C29.4672 38.8981 29.5363 38.8883 30.0537 39.2274C30.8732 39.7641 31.3925 39.2688 31.2356 38.1C31.0843 36.9725 31.5179 36.5399 32.2706 37.067C32.7445 37.3989 32.8285 37.3978 33.2088 37.0535C33.5319 36.7612 33.594 36.4716 33.4832 35.7781C33.3227 34.774 33.4011 34.7188 34.2232 35.2574C35.1069 35.8365 35.5796 35.3326 35.3829 34.0213C35.2517 33.145 35.2873 33.0188 35.666 33.0188C35.9041 33.0188 36.2127 33.1324 36.3516 33.2714C36.4903 33.4101 36.8518 33.4888 37.1546 33.4459C37.5854 33.385 37.7209 33.2037 37.7779 32.6115L37.851 31.8551H39.2065C39.9527 31.8551 41.4374 32.1093 42.5085 32.4205ZM58.9721 34.5145L60.4019 36.2431L59.1364 36.5261C57.9438 36.7931 57.7835 36.7721 56.3416 36.1593C55.5002 35.8018 54.8092 35.4464 54.8055 35.3696C54.8008 35.2651 57.3682 32.8226 57.5153 32.7917C57.5302 32.7887 58.1856 33.5639 58.9721 34.5145ZM52.8336 35.9806C54.4978 36.6853 55.9499 37.3158 56.0604 37.3817C56.1712 37.4476 55.7201 37.8141 55.058 38.1963L53.8542 38.8913L51.5668 38.1663C47.6869 36.9362 46.3891 37.2111 43.5819 39.8577C42.1964 41.1638 42.0255 41.418 42.1352 42.0085C42.2501 42.6267 42.1314 42.7626 40.5853 43.7834C39.6646 44.3913 38.6921 44.8883 38.4245 44.8876C37.7286 44.8857 36.1922 44.4332 36.1922 44.2301C36.1922 43.6137 46.2632 35.2046 47.5617 34.7365C48.6861 34.3313 49.2596 34.4668 52.8336 35.9806ZM41.9459 37.1632C42.1352 37.2835 41.5621 37.866 40.2264 38.9108C38.0304 40.6281 38.2083 40.5992 35.9594 39.6051C34.7305 39.0619 34.698 39.0249 35.1448 38.6804C35.4009 38.4831 36.2387 38.0187 37.0068 37.6487C38.1414 37.1022 38.7087 36.9765 40.0325 36.9793C40.9286 36.9811 41.7895 37.064 41.9459 37.1632ZM62.6704 38.0841C63.0019 38.585 62.9623 38.6669 61.8579 39.7715C60.8699 40.7593 60.5646 40.9323 59.807 40.9323C58.4971 40.9323 54.7261 40.4365 54.5045 40.235C54.3995 40.1395 54.8709 39.7164 55.5519 39.2944C58.4479 37.5006 61.8968 36.9143 62.6704 38.0841ZM50.3898 39.1068C52.5466 39.729 52.896 40.0008 51.5419 40.0031C49.8891 40.0059 47.6313 40.4384 45.5603 41.149C44.5041 41.5113 43.6401 41.7369 43.6401 41.65C43.6401 41.4704 45.0073 40.1565 46.1601 39.2283C47.1218 38.454 48.0351 38.4277 50.3898 39.1068ZM64.8201 41.1566C64.8201 41.4362 64.2441 41.9563 63.1811 42.6364C61.6526 43.6142 61.4052 43.6952 59.5153 43.8335C58.4007 43.9149 56.6507 44.1404 55.6266 44.3343C53.219 44.7903 47.5067 47.0475 42.9661 49.3372L39.3825 51.1443L35.8577 50.6508C32.3619 50.1611 32.3256 50.1609 31.4146 50.6069C30.9093 50.8543 30.2655 51.4233 29.9839 51.8714C28.7275 53.869 29.1863 53.7066 23.3911 54.2054C17.5878 54.7048 15.3387 54.7716 15.1402 54.4504C14.934 54.1167 16.2462 53.782 19.7835 53.266C27.7383 52.1053 30.968 50.9048 38.4969 46.3101C43.5268 43.2404 44.859 42.544 46.8986 41.9177C49.5146 41.1143 50.9549 41.0682 55.5991 41.6396C57.9385 41.9272 60.2154 42.0946 60.6593 42.0115C61.202 41.9096 61.8428 41.4767 62.6192 40.6867L63.7727 39.5132L64.2964 40.1193C64.5846 40.4528 64.8201 40.9195 64.8201 41.1566ZM125.218 41.8209L122.425 42.6851L122.359 45.1834L122.293 47.6819H120.09H117.886V50.824V53.9661H120.098H122.309L122.311 60.1921C122.315 67.8367 122.51 68.8452 124.363 70.7835C125.519 71.9931 127.259 72.6005 130.011 72.7563C131.24 72.8256 132.732 72.8093 133.328 72.7199L134.412 72.5573V69.6847V66.8121L132.205 66.7316C130.157 66.6566 129.953 66.6047 129.354 66.0059L128.709 65.3609L128.636 59.6707L128.563 53.9808L131.429 53.9151L134.295 53.8497V50.824V47.7983L131.444 47.7329L128.593 47.6675V44.2999C128.593 41.7543 128.522 40.9353 128.302 40.9446C128.142 40.9513 126.754 41.3456 125.218 41.8209ZM26.7797 42.6704C27.2021 42.99 27.173 43.0126 26.3302 43.0195C25.5549 43.0261 25.4693 42.9781 25.7186 42.6779C26.0791 42.2433 26.2139 42.2424 26.7797 42.6704ZM29.3292 44.5133C29.9501 44.9674 29.7293 45.3496 27.0292 48.4926C25.2335 50.5831 24.5506 51.2167 23.9001 51.3963C23.4425 51.5227 23.0429 51.6007 23.012 51.57C22.9812 51.539 23.3134 50.9397 23.75 50.238C24.6263 48.8303 24.7413 48.1344 24.1892 47.5821C23.689 47.0821 23.4004 47.0984 19.8999 47.8241C19.571 47.8923 20.3803 47.2048 21.7619 46.2422C23.963 44.709 24.3444 44.5261 25.6022 44.4007C28.0463 44.1574 28.8767 44.1823 29.3292 44.5133ZM171.696 45.5774C166.308 47.0382 163.07 50.9604 161.99 57.3328C161.795 58.4802 161.526 59.5276 161.392 59.6603C161.258 59.7927 160.609 59.9012 159.951 59.9012H158.753L158.094 61.5304C156.862 64.5736 156.435 65.3898 155.65 66.1974C154.051 67.8439 151.676 68.5242 148.887 68.1344C147.09 67.8832 146.227 67.4661 144.946 66.2309C144.095 65.4096 143.266 63.8867 143.528 63.6249C143.575 63.5776 144.292 63.8697 145.122 64.2736C146.444 64.9171 146.861 65.0062 148.493 64.9934C151.324 64.9716 153.132 64.0061 154.275 61.9053C156.34 58.1106 154.213 53.7341 149.971 53.0502C148.469 52.8082 146.566 53.0786 145.275 53.7175C144.754 53.9749 144.286 54.1432 144.235 54.0913C143.96 53.8171 144.8 52.2575 145.622 51.515C146.795 50.4551 147.764 50.042 149.499 49.8604C152.291 49.5688 155.019 51.057 155.981 53.397C156.215 53.9649 156.501 54.4302 156.617 54.4307C156.732 54.4311 157.754 54.1535 158.886 53.8136C160.417 53.3542 160.945 53.0954 160.945 52.8035C160.945 51.9605 159.494 49.56 158.305 48.4353C155.974 46.231 152.876 45.1836 149.486 45.4538C144.929 45.8174 141.597 48.0201 140.013 51.7173C139.401 53.1468 139.274 53.9722 139.202 56.9918C139.17 58.3359 139.004 60.1853 138.834 61.1014C137.85 66.4025 141.172 71.1405 146.803 72.4681C149.912 73.2013 154.168 72.6916 156.772 71.2741C157.879 70.6718 159.973 68.6639 160.743 67.4661C161.111 66.8936 161.129 66.8906 161.925 67.2704C162.702 67.6409 162.781 67.802 163.942 71.3991C164.606 73.4578 165.352 75.6144 165.599 76.1916L166.049 77.2408H168.57C171.169 77.2408 171.651 77.0884 171.651 76.2675C171.651 76.0394 171.127 74.4143 170.487 72.6564C169.847 70.8985 169.324 69.4152 169.324 69.3602C169.324 69.3055 170.031 69.3263 170.895 69.4066C172.891 69.5921 176.216 69.2259 178.168 68.6057C182.283 67.2983 185.482 64.2787 186.801 60.4567C187.52 58.3748 187.517 55.1417 186.796 53.0351C185.148 48.2233 181.229 45.4555 175.724 45.2169C173.894 45.1375 173.033 45.2146 171.696 45.5774ZM65.7511 47.1143C69.135 47.9819 73.4317 50.4591 73.4317 51.542C73.4317 52.329 72.8222 52.278 70.288 51.279C64.7156 49.0826 60.9753 48.8599 55.2775 50.3853C50.0791 51.7769 45.5135 53.9175 33.3992 60.6427C29.2389 62.9522 25.3064 65.1091 24.66 65.4354C22.6538 66.4493 18.5986 67.6982 17.3136 67.6982C16.1706 67.6982 16.0765 67.6458 14.5237 66.1469C13.6399 65.2937 12.957 64.5552 13.0064 64.5061C13.0555 64.4569 13.7996 64.5391 14.6598 64.689C18.6556 65.3849 22.9435 63.7231 35.2158 56.7232C45.7718 50.7023 51.432 48.1493 56.8567 46.9625C59.2861 46.4311 63.3573 46.5005 65.7511 47.1143ZM103.317 47.3151C100.481 47.961 98.2889 49.465 97.2164 51.5013C96.6667 52.5449 96.5922 52.949 96.592 54.8971C96.5915 56.7267 96.6792 57.2725 97.1007 58.0613C98.1528 60.0299 100.346 61.3668 104.514 62.5803C107.423 63.4273 107.753 63.5728 108.635 64.3953C110.575 66.2047 107.443 68.1499 104.09 67.2187C103.079 66.938 101.724 65.8306 101.235 64.8866L100.901 64.2389L98.2217 65.7629C96.7481 66.601 95.5427 67.407 95.5427 67.5539C95.5427 68.0506 97.1366 70.1914 98.0299 70.8943C101.538 73.6553 107.486 74.1099 111.8 71.9468C114.551 70.5675 115.949 68.0296 115.741 64.7916C115.498 60.9995 113.339 59.0416 107.775 57.5686C103.899 56.5419 102.638 55.6133 103.217 54.2138C104.035 52.2391 107.954 52.4342 109.319 54.5175L109.856 55.3367L112.3 54.0396C113.644 53.3263 114.881 52.6155 115.048 52.4605C115.295 52.2317 115.172 51.951 114.401 50.9748C112.002 47.9403 107.336 46.3997 103.317 47.3151ZM197.253 47.2495C195.66 47.5127 193.429 48.5391 192.306 49.5255C191.837 49.9372 191.161 50.8692 190.804 51.5963C190.239 52.7474 190.155 53.1901 190.156 55.0135C190.158 56.7188 190.252 57.2853 190.666 58.0613C191.717 60.0317 193.918 61.3724 198.078 62.5754C201.127 63.4575 202.54 64.2114 202.756 65.0721C203.099 66.4395 201.783 67.4261 199.581 67.451C197.438 67.4752 195.797 66.6043 194.975 65.0053L194.577 64.2307L191.842 65.7506C190.338 66.5866 189.107 67.4019 189.107 67.5627C189.107 68.2386 191.041 70.5005 192.387 71.3996C194.232 72.6313 195.688 73.067 198.472 73.2208C205.075 73.5855 209.356 70.5112 209.356 65.4035C209.356 61.2837 207.15 59.0835 201.535 57.6023C197.605 56.5659 196.169 55.5811 196.744 54.318C197.337 53.017 199.345 52.4714 201.089 53.1373C202.021 53.4932 203.122 54.4656 203.343 55.1273C203.388 55.2634 204.576 54.7442 205.983 53.9738C207.39 53.2032 208.641 52.5391 208.762 52.4979C209.12 52.3757 208.014 50.7961 206.839 49.7508C205.44 48.5065 203.36 47.5341 201.443 47.2285C199.707 46.9516 199.036 46.9551 197.253 47.2495ZM23.1583 48.6932C23.1583 48.8654 22.7455 49.6449 22.2409 50.4258C21.2496 51.9596 21.3106 51.9307 18.4527 52.2093C17.7207 52.2808 16.4347 52.5885 15.5955 52.8931C13.9108 53.5046 13.8722 53.4883 13.521 52.0213C13.3453 51.2879 13.7784 50.4204 14.5181 50.0248C14.7585 49.896 16.3556 49.5767 18.0675 49.3149C19.7793 49.053 21.4942 48.7446 21.8782 48.6294C22.8874 48.3269 23.1583 48.3404 23.1583 48.6932ZM178.015 51.1375C180.14 52.0878 181.294 54.0187 181.304 56.6427C181.319 60.5687 178.315 63.4669 173.746 63.9358C171.66 64.1497 168.666 63.8823 168.227 63.4426C167.695 62.9113 167.693 58.008 168.223 56.2647C169.611 51.7026 174.064 49.371 178.015 51.1375ZM34.7957 51.7187L36.5413 52.0024L34.3302 52.5175C30.8867 53.3195 30.6063 53.3593 30.6063 53.0463C30.6063 52.551 31.9469 51.4054 32.5085 51.4205C32.8064 51.4285 33.8356 51.5628 34.7957 51.7187ZM66.6665 52.8308C68.5096 53.2993 71.4073 54.5375 71.8174 55.0314C71.9952 55.2458 71.9575 55.5358 71.6827 56.0678C71.2502 56.9038 71.3689 56.9064 68.3113 55.9991C64.6081 54.9006 61.1534 54.945 56.4042 56.1525C51.2807 57.455 46.4887 59.677 35.4939 65.8485C26.5597 70.8633 24.4215 71.9449 23.3916 71.9707C22.8623 71.984 22.0924 71.7135 21.1954 71.1996C20.0267 70.5298 19.8836 70.3801 20.2644 70.2268C20.512 70.1271 21.9066 69.5755 23.3636 69.0009C24.8209 68.4262 27.7011 67.0174 29.7642 65.8702C34.3079 63.3437 45.3403 57.4294 48.0628 56.0606C55.0405 52.5522 61.2984 51.4657 66.6665 52.8308ZM149.9 57.5632C150.294 57.9575 150.471 58.3932 150.471 58.9702C150.471 59.5471 150.294 59.9828 149.9 60.3771C148.691 61.586 145.379 60.7893 144.978 59.1934C144.697 58.0711 146.223 56.9939 148.096 56.9928C149.095 56.9921 149.437 57.1 149.9 57.5632ZM65.4208 58.173C67.6089 58.4772 69.3298 59.0858 69.4269 59.59C69.4664 59.7957 69.2544 60.2482 68.9556 60.5957L68.4121 61.2274L63.9976 61.276C59.9983 61.3202 59.3671 61.3845 57.2828 61.9586C52.3632 63.3142 46.2597 66.1432 37.3157 71.2138C29.9329 75.3993 30.6959 75.1089 28.7408 74.479C27.8466 74.1911 27.1151 73.8762 27.1151 73.7794C27.1151 73.6824 27.4872 73.4256 27.9422 73.2087C28.3973 72.9916 32.1938 70.9127 36.3793 68.5885C48.8664 61.6544 52.2557 60.0455 56.9244 58.8352C60.2555 57.9719 62.639 57.7859 65.4208 58.173ZM65.8274 63.9419C66.1949 64.0867 66.0958 64.2563 65.101 65.1869C64.1577 66.0692 63.7436 66.2901 62.8136 66.4076C59.9208 66.7728 57.4697 67.2934 55.6966 67.9193C53.4807 68.7016 48.0779 71.256 43.1897 73.8329C38.9835 76.0503 38.627 76.1676 36.725 75.964C35.4912 75.832 35.2647 75.7468 35.5237 75.5122C35.6995 75.353 37.9902 74.0643 40.6144 72.648C51.2151 66.9271 53.945 65.657 57.7213 64.6892C60.7563 63.9114 64.8031 63.5383 65.8274 63.9419ZM58.5324 70.5165C56.795 71.8953 49.9124 74.7306 47.5968 75.0213C46.6754 75.137 46.9556 74.949 49.9243 73.4587C53.0075 71.9109 58.7261 69.7017 58.9979 69.953C59.0601 70.0105 58.8506 70.264 58.5324 70.5165Z" fill="#0058E2"/>
</svg>
